<?xml version="1.0" encoding="UTF-8" standalone="no"?>
<svg
   viewBox="0 0 24 24"
   fill="none"
   stroke="currentColor"
   stroke-linecap="round"
   stroke-linejoin="round"
   width="24"
   height="24"
   stroke-width="2"
   version="1.1"
   id="svg6"
   sodipodi:docname="hours-9.svg"
   inkscape:version="1.4.1-rc (06eac75fbf, 2025-03-29)"
   xmlns:inkscape="http://www.inkscape.org/namespaces/inkscape"
   xmlns:sodipodi="http://sodipodi.sourceforge.net/DTD/sodipodi-0.dtd"
   xmlns="http://www.w3.org/2000/svg"
   xmlns:svg="http://www.w3.org/2000/svg">
  <defs
     id="defs6" />
  <sodipodi:namedview
     id="namedview6"
     pagecolor="#ffffff"
     bordercolor="#000000"
     borderopacity="0.25"
     inkscape:showpageshadow="2"
     inkscape:pageopacity="0.0"
     inkscape:pagecheckerboard="0"
     inkscape:deskcolor="#d1d1d1"
     inkscape:zoom="33.791667"
     inkscape:cx="12"
     inkscape:cy="12"
     inkscape:window-width="1920"
     inkscape:window-height="1016"
     inkscape:window-x="0"
     inkscape:window-y="0"
     inkscape:window-maximized="1"
     inkscape:current-layer="svg6" />
  <path
     d="M4 13c.325 2.532 1.881 4.781 4 6"
     id="path1" />
  <path
     d="m 19.515693,15.15852 c 0.963844,-2.363823 0.71691,-5.087452 -0.527202,-7.1918058"
     id="path1-6" />
  <path
     d="M20 11a8.1 8.1 0 0 0 -15.5 -2"
     id="path2" />
  <path
     d="M4 5v4h4"
     id="path3" />
  <path
     d="m 12,15 h 2 a 1,1 0 0 1 1,1 v 1 a 1,1 0 0 1 -1,1 h -1 a 1,1 0 0 0 -1,1 v 1 a 1,1 0 0 0 1,1 h 2"
     id="path4"
     style="display:none" />
  <path
     d="m 12.998767,15.355117 v 2 a 1,1 0 0 0 1,1 h 1"
     id="path5" />
  <path
     d="m 15.998767,15.355117 v 6"
     id="path6" />
  <path
     d="m 16.120847,15.18249 -3.272518,0"
     id="path6-5"
     style="stroke-width:1.69475"
     sodipodi:nodetypes="cc" />
</svg>
