<?xml version="1.0" encoding="UTF-8" standalone="no"?>
<!-- Created with Inkscape (http://www.inkscape.org/) -->

<svg
   width="193.91753mm"
   height="184.79733mm"
   viewBox="0 0 193.91753 184.79733"
   version="1.1"
   id="svg8"
   inkscape:version="0.92.3 (2405546, 2018-03-11)"
   sodipodi:docname="BOT_Vectors-bigger.svg"
   xmlns:inkscape="http://www.inkscape.org/namespaces/inkscape"
   xmlns:sodipodi="http://sodipodi.sourceforge.net/DTD/sodipodi-0.dtd"
   xmlns="http://www.w3.org/2000/svg"
   xmlns:svg="http://www.w3.org/2000/svg"
   xmlns:rdf="http://www.w3.org/1999/02/22-rdf-syntax-ns#"
   xmlns:cc="http://creativecommons.org/ns#"
   xmlns:dc="http://purl.org/dc/elements/1.1/">
  <defs
     id="defs2" />
  <sodipodi:namedview
     id="base"
     pagecolor="#ffffff"
     bordercolor="#666666"
     borderopacity="1.0"
     inkscape:pageopacity="0.0"
     inkscape:pageshadow="2"
     inkscape:zoom="0.98994949"
     inkscape:cx="441.62073"
     inkscape:cy="984.20225"
     inkscape:document-units="mm"
     inkscape:current-layer="layer1"
     showgrid="false"
     inkscape:window-width="1331"
     inkscape:window-height="713"
     inkscape:window-x="35"
     inkscape:window-y="27"
     inkscape:window-maximized="1"
     inkscape:snap-center="true"
     inkscape:showpageshadow="2"
     inkscape:pagecheckerboard="0"
     inkscape:deskcolor="#d1d1d1">
    <inkscape:page
       x="0"
       y="0"
       width="193.91753"
       height="184.79733"
       id="page2"
       margin="0"
       bleed="0" />
  </sodipodi:namedview>
  <metadata
     id="metadata5">
    <rdf:RDF>
      <cc:Work
         rdf:about="">
        <dc:format>image/svg+xml</dc:format>
        <dc:type
           rdf:resource="http://purl.org/dc/dcmitype/StillImage" />
      </cc:Work>
    </rdf:RDF>
  </metadata>
  <path
     style="fill:#000000;stroke-width:0.613748"
     d="m 74.667469,183.62837 c -8.952085,-1.6329 -21.072202,-5.82421 -26.698042,-9.23258 -0.50634,-0.30678 -2.715833,-1.53513 -4.909982,-2.72969 -2.194149,-1.19455 -6.900719,-4.58533 -10.45903,-7.53506 -3.558311,-2.94972 -7.632061,-6.32014 -9.052783,-7.48981 -1.420721,-1.16968 -2.583124,-2.38742 -2.583124,-2.70611 0,-0.31867 -1.077189,-2.00612 -2.393734,-3.74988 C 15.465183,146.07193 10.983409,137.75703 8.9588355,132.35256 4.7771345,121.18973 0.05859545,101.32066 6.9645251e-4,94.631213 -0.02000355,92.237483 0.42077845,87.880653 1.3357345,81.435633 c 0.335443,-2.36293 1.00452,-7.47239 1.486816,-11.35435 1.095822,-8.81998 3.710139,-16.05607 9.0383585,-25.016932 9.181558,-15.441365 31.870518,-34.07324 48.997225,-40.2358872 9.559487,-3.439755 18.269952,-4.75686602 31.914922,-4.82584302 12.379644,-0.06258 21.680444,0.995406 27.756774,3.15740602 1.93254,0.687614 3.80633,1.250206 4.16398,1.250206 0.35764,0 4.99067,1.687765 10.29561,3.75059 5.30494,2.0628272 10.38904,3.9723142 11.29798,4.2433032 4.95344,1.476818 24.05833,17.907841 29.70343,25.546214 0.96098,1.300294 2.56256,3.324951 3.55911,4.499241 3.42709,4.038328 11.38079,22.859282 13.29836,31.468052 1.34796,6.0515 1.44968,10.71496 0.14387,6.59739 -0.61189,-1.9295 -0.6923,-1.5547 -0.79018,3.68247 -0.32412,17.342077 -2.97601,30.091117 -8.87263,42.655517 -1.10896,2.36292 -2.45363,5.26289 -2.98821,6.44434 -0.53456,1.18147 -1.67537,2.89559 -2.53514,3.80915 -0.85977,0.91357 -1.56321,1.97423 -1.56321,2.35704 0,0.38282 -1.31188,1.99669 -2.91531,3.58638 -1.60342,1.5897 -4.66581,5.01706 -6.80531,7.61637 -2.13948,2.5993 -4.27993,4.726 -4.75655,4.726 -0.47661,0 -0.86656,0.25759 -0.86656,0.5724 0,0.31481 -0.48332,0.73762 -1.07405,0.93959 -0.59074,0.20195 -2.56877,1.7396 -4.39564,3.41697 -1.82687,1.67737 -3.51418,3.04976 -3.74955,3.04976 -0.23539,0 -1.64064,0.96399 -3.12278,2.14217 -1.48213,1.1782 -3.11401,2.14484 -3.62639,2.14811 -0.51237,0.003 -1.89331,0.65023 -3.06874,1.43768 -2.15146,1.4413 -12.91891,7.01319 -17.48087,9.04593 -6.45588,2.87662 -28.947514,6.74528 -38.666144,6.65073 -2.70049,-0.0263 -7.67185,-0.55154 -11.047471,-1.16726 z m 23.123587,-4.35771 c 0.6412,-0.34317 1.72104,-0.44773 2.399614,-0.23236 0.67856,0.21536 1.57597,0.10751 1.99422,-0.23955 0.41826,-0.34712 3.46907,-0.79695 6.77958,-0.99965 5.64484,-0.34562 8.94892,-1.14224 22.01442,-5.30778 2.81859,-0.89862 3.07976,-1.84611 0.30686,-1.11327 -7.87789,2.08204 -12.73063,3.21894 -14.57651,3.41499 -2.09739,0.22278 -2.07566,0.19294 0.92062,-1.26303 1.68781,-0.82016 3.63493,-1.50814 4.32692,-1.52886 0.69201,-0.0207 1.52057,-0.27469 1.84126,-0.56442 0.32067,-0.2897 2.37827,-0.87315 4.57242,-1.29655 12.00809,-2.31712 16.60255,-4.56641 24.62372,-12.05492 3.03279,-2.83139 5.91318,-5.14796 6.40091,-5.14796 2.3045,0 11.93776,-11.92055 11.93776,-14.77222 0,-0.96818 0.24016,-1.06354 1.48583,-0.58994 1.23497,0.46954 1.64946,0.31519 2.45499,-0.91423 0.53304,-0.81351 0.96917,-1.60268 0.96917,-1.75367 0,-0.62089 5.04792,-8.9749 5.42335,-8.9753 0.22399,-2.2e-4 0.44376,-0.63725 0.48836,-1.41559 0.0447,-0.77833 0.7552,-2.91858 1.57908,-4.7561 2.33201,-5.20118 4.44011,-11.56148 3.98337,-12.0182 -0.16493,-0.16493 0.10386,-2.00843 0.59712,-4.09685 1.23298,-5.220137 1.47387,-8.056137 1.4694,-17.299587 -0.009,-17.7256 -5.03412,-33.21721 -14.69023,-45.283532 C 170.35387,35.139694 157.77433,23.344562 152.20726,19.603148 127.1437,2.7588988 95.039176,-2.7987862 68.530001,5.1175898 c -7.770998,2.320636 -9.734977,3.144564 -17.798707,7.4669472 -8.472417,4.541449 -11.713935,6.856384 -21.117227,15.080911 -7.131776,6.23777 -7.929159,7.113361 -11.767659,12.921641 -3.31337,5.013659 -3.253436,4.859903 -2.405634,6.171772 0.489864,0.758028 0.596616,0.767063 0.60434,0.05113 0.0052,-0.478209 0.181944,-0.696937 0.392838,-0.486047 0.210876,0.210885 -0.501851,2.218977 -1.583842,4.462419 -10.3269435,21.41226 -12.2155915,48.44996 -4.8675125,69.682857 0.9461505,2.73396 1.1097575,3.91557 0.6112295,4.41412 -0.374431,0.37445 -0.6807845,1.14594 -0.6807845,1.71446 0,2.56477 10.8090315,21.42952 12.2785715,21.42952 0.335582,0 0.617249,0.62142 0.625965,1.38093 0.01044,0.96179 0.949091,2.01408 3.090594,3.4669 1.691116,1.14729 4.376816,3.50557 5.968208,5.24061 4.876405,5.31656 19.254624,15.19301 23.917125,16.42876 1.264318,0.33509 4.37017,1.01743 6.901884,1.51628 2.531715,0.49886 5.105549,1.17624 5.719631,1.50531 0.614083,0.32906 3.37595,0.89212 6.137487,1.25124 2.761518,0.3591 6.401898,0.85603 8.089708,1.10424 3.93223,0.57833 13.62651,0.16162 15.14484,-0.65093 z m -16.37096,-6.17331 c -12.98867,-1.22002 -31.773507,-9.03174 -40.777594,-16.95747 -1.888925,-1.6627 -4.396405,-3.5163 -5.572169,-4.1191 -1.175746,-0.6028 -2.27583,-1.29252 -2.444604,-1.53271 -0.168757,-0.2402 -1.549725,-1.12112 -3.068744,-1.95762 l -2.761867,-1.52088 -0.318897,-4.24767 c -0.266444,-3.54909 -0.685692,-4.808 -2.549165,-7.65461 -3.126503,-4.77598 -5.523751,-10.75411 -3.501508,-8.73186 0.378694,0.37869 1.035087,0.55554 1.458649,0.39301 0.450719,-0.17293 0.938948,0.37716 1.17719,1.32644 0.589744,2.34972 3.449055,6.66343 4.003707,6.04018 0.259833,-0.29195 0.812885,-3.43078 1.229018,-6.97518 0.41615,-3.54441 0.854917,-7.13483 0.975048,-7.97872 0.120217,-0.84391 0.506148,-4.15815 0.857788,-7.36499 0.351657,-3.20683 1.196797,-7.83302 1.878122,-10.28041 0.681324,-2.447387 1.79898,-7.971117 2.483662,-12.274957 1.100693,-6.91883 1.427629,-7.96735 2.822619,-9.05266 0.867757,-0.67513 2.447023,-2.08178 3.509477,-3.12591 1.062453,-1.04413 3.07297,-2.52665 4.467822,-3.29453 1.442016,-0.79383 3.163021,-2.45475 3.989354,-3.85009 0.799315,-1.34967 1.888769,-3.17906 2.421013,-4.06531 0.532227,-0.88623 1.913161,-2.11796 3.068743,-2.73716 1.155566,-0.6192 2.821541,-2.27863 3.702172,-3.68763 1.415016,-2.26396 1.687358,-3.63217 2.342481,-11.768029 0.845958,-10.506051 0.443099,-9.777255 7.565707,-13.686377 2.449945,-1.3446 5.964606,-3.579454 7.810368,-4.966334 1.845778,-1.38688 3.547958,-2.521603 3.782658,-2.521603 0.23469,0 1.8979,-1.255791 3.69603,-2.790639 2.66266,-2.272809 3.55458,-2.712872 4.80665,-2.371561 2.06544,0.563034 39.282874,0.893269 39.282874,0.34856 0,-1.341985 -11.09232,-5.321988 -20.56055,-7.377271 -9.546224,-2.072206 -14.616544,-2.678595 -18.882394,-2.258245 -7.9972,0.788022 -19.876676,3.965599 -28.065373,7.507056 -3.291936,1.423693 -9.904829,6.037749 -12.580422,8.777815 -1.321451,1.353291 -2.834902,2.460522 -3.363232,2.460522 -1.018924,0 -6.987341,5.599366 -10.258679,9.624352 -9.680522,11.910664 -14.309046,19.714304 -14.309046,24.124884 0,0.98356 -0.433757,3.38982 -0.963896,5.34727 -1.985708,7.33176 -3.145832,32.218837 -1.699553,36.458697 0.956485,2.80397 3.909308,17.307 3.588931,17.62738 -0.93352,0.93352 -4.947996,-12.91253 -5.464791,-18.84822 -0.217035,-2.49274 -0.704096,-5.761397 -1.082372,-7.263677 -0.528295,-2.09803 -0.50239,-3.53771 0.111693,-6.20833 0.439705,-1.91229 0.884161,-6.89771 0.987694,-11.07872 0.113954,-4.60267 0.539864,-8.59801 1.079468,-10.12684 0.490177,-1.38876 1.391494,-5.1488 2.002932,-8.35564 0.920628,-4.82842 1.561886,-6.5039 3.730808,-9.7478 1.440486,-2.15446 2.619085,-4.264933 2.619085,-4.689935 0,-1.145396 5.116387,-7.25758 11.043119,-13.192452 3.663463,-3.668495 7.052321,-6.313449 11.358694,-8.865304 3.375619,-2.000316 7.104131,-4.370262 8.285601,-5.266555 4.968038,-3.768898 10.691671,-5.908137 23.877669,-8.924416 5.94898,-1.360822 6.89372,-1.4172542 13.80933,-0.824884 15.269404,1.307928 24.717114,2.931721 25.829444,4.439353 0.34115,0.462367 2.41548,1.627882 4.60963,2.590024 2.19415,0.962142 4.804,2.308086 5.79966,2.990985 1.909,1.309333 7.51294,1.679178 10.86457,0.717029 1.33793,-0.384076 1.70009,-0.238157 2.03604,0.820324 0.22476,0.708126 0.80431,1.287497 1.28791,1.287497 0.56577,0 0.87925,0.649751 0.87925,1.822385 0,1.546417 0.53133,2.162259 3.50859,4.066799 1.92973,1.234425 4.25002,3.038127 5.15623,4.008223 0.90621,0.970091 2.08921,1.763809 2.6289,1.763809 0.53969,0 0.98171,0.345233 0.98227,0.767185 5.5e-4,0.421953 1.0848,1.786927 2.40944,3.033279 3.07671,2.894902 6.88646,8.055311 9.98898,13.530364 2.77432,4.89586 3.99041,8.02901 4.82689,12.43596 0.32036,1.6878 1.12611,4.86396 1.79054,7.05811 1.61279,5.32584 2.46379,21.14329 1.42893,26.55925 -0.40159,2.101707 -0.74717,4.732607 -0.768,5.846437 -0.0209,1.11384 -0.49678,2.90905 -1.0577,3.98937 -1.05663,2.035 -3.85096,14.82297 -3.87592,17.73773 -0.007,0.91151 -0.37428,1.87817 -0.81433,2.14811 -0.44005,0.26994 -1.73177,1.80556 -2.87046,3.41247 -2.01607,2.84501 -2.03936,2.9464 -0.88772,3.86484 1.1123,0.88707 1.06448,0.92042 -0.80378,0.56045 -1.71959,-0.33134 -2.08322,-0.17033 -2.70694,1.19857 -0.39626,0.86972 -0.91468,1.58132 -1.15203,1.58132 -0.73836,0 -3.68133,3.19266 -7.07191,7.67186 -5.48626,7.24775 -12.95717,13.41436 -20.83882,17.20072 -4.67915,2.24785 -7.00908,2.85668 -15.26415,3.98861 -3.75849,0.51534 -5.80034,1.10263 -6.59444,1.89674 -2.57694,2.57695 -19.927484,4.55109 -30.922374,3.51833 z m 11.18502,-3.70417 c 0.68584,-0.5692 0.85571,-2.35743 0.77248,-8.13244 -0.0586,-4.07156 -0.0122,-8.35874 0.10474,-9.52709 0.20388,-2.04901 0.12439,-2.13881 -2.24363,-2.53475 -1.35024,-0.22575 -5.94742,-0.53821 -10.21595,-0.69435 l -7.760977,-0.2839 0.142834,10.33963 c 0.07846,5.68679 0.307746,10.50452 0.509297,10.70607 1.458892,1.45889 16.959466,1.56408 18.691236,0.12683 z m 16.392274,-0.35985 c 0.99069,-0.28181 1.91078,-0.84093 2.04463,-1.24249 0.18123,-0.5437 -0.9839,-0.63409 -4.56312,-0.35406 -6.46868,0.50611 -8.961724,1.03492 -9.272374,1.96685 -0.20172,0.6052 0.88637,0.70826 4.864884,0.46081 2.8186,-0.17529 5.93529,-0.54931 6.92598,-0.83111 z m -39.752888,-2.9417 c 0.64171,-1.67227 -0.700166,-2.26623 -4.072131,-1.80246 -3.544655,0.48752 -3.566837,0.67884 -0.217105,1.87339 3.082296,1.09922 3.845058,1.0866 4.289236,-0.071 z m 51.725398,-1.02098 c 3.76342,-1.14926 20.90147,-10.85009 26.03555,-14.73716 6.56849,-4.97309 14.05234,-12.6477 17.36691,-17.8096 1.46533,-2.28199 2.66423,-4.39634 2.66423,-4.69855 0,-0.52581 1.32156,-3.41704 3.67063,-8.03045 1.61295,-3.16766 3.55118,-14.40598 4.24877,-24.635137 0.69961,-10.25915 0.23497,-16.40777 -2.12346,-28.09924 -1.26303,-6.26124 -2.01744,-8.4968 -3.99278,-11.83214 -1.33953,-2.26179 -2.7117,-4.28302 -3.04926,-4.49165 -0.33756,-0.20862 -0.98181,-1.258031 -1.43168,-2.332023 -0.44987,-1.073991 -2.26322,-3.747927 -4.02968,-5.942076 -1.76646,-2.194151 -3.39655,-4.296422 -3.62244,-4.671717 -0.22587,-0.375294 -1.65354,-1.270335 -3.17255,-1.988986 -2.40082,-1.135821 -4.6073,-2.687192 -9.43875,-6.636348 -0.86736,-0.708971 -1.26587,-0.760153 -1.60804,-0.20652 -0.6088,0.985046 -1.84192,12.03508 -1.84192,16.505358 v 3.571542 l 7.5184,0.104107 c 4.13513,0.05725 8.41412,0.265753 9.50883,0.463324 l 1.9904,0.359219 -0.13135,4.38217 c -0.0724,2.4102 -0.0242,11.14875 0.10682,19.41901 0.24687,15.58391 -0.38722,34.833727 -1.1827,35.904267 -0.25082,0.33757 -0.64664,1.40973 -0.87957,2.3826 -0.23296,0.97286 -1.67569,3.56028 -3.20608,5.74978 -1.5304,2.18952 -3.45351,5.18278 -4.2736,6.65169 -0.82007,1.4689 -2.17729,3.35697 -3.01603,4.19573 -0.83873,0.83873 -1.52498,1.92358 -1.52498,2.41076 0,0.48719 -1.06494,2.64019 -2.36653,4.78446 -1.3016,2.14425 -2.55527,4.49554 -2.78594,5.22509 -0.23066,0.72955 -1.43447,2.10067 -2.67509,3.04694 -1.24064,0.94629 -2.81389,2.28269 -3.49612,2.96981 -1.68653,1.69861 -6.36217,2.72642 -12.54486,2.75765 -6.58883,0.0332 -6.77618,0.25411 -6.79097,8.00472 -0.007,3.20684 0.15466,6.44939 0.3574,7.20566 0.39254,1.46465 0.97247,1.46646 5.7166,0.0178 z m -13.94651,-0.82819 c 3.28682,-0.3161 4.19769,-0.6304 4.48927,-1.54913 0.52558,-1.65592 -0.2183,-2.50863 -1.75975,-2.01717 -0.73109,0.2331 -2.43402,0.39432 -3.78427,0.35829 -1.35024,-0.036 -3.97402,0.28742 -5.83061,0.7188 -2.770204,0.64364 -3.412614,1.03801 -3.581874,2.19897 -0.19873,1.3631 -0.0868,1.40141 3.06874,1.05072 1.801254,-0.20017 5.130574,-0.54238 7.398494,-0.76048 z m -36.704013,-4.0876 c 0.761928,-2.1665 0.505661,-2.34641 -2.419761,-1.69873 -1.34111,0.2969 -4.747645,0.6151 -7.570108,0.7071 -3.588844,0.11691 -5.22627,0.4136 -5.446123,0.98652 -0.556845,1.45109 0.335164,1.58225 5.677981,0.83484 4.615998,-0.64577 5.36011,-0.61664 6.220125,0.24337 1.35722,1.35722 2.84153,0.90702 3.537886,-1.0731 z M 50.06695,157.69385 c 0.153794,-0.75951 0.437201,-3.38329 0.62974,-5.83061 l 0.35004,-4.44968 h -3.594168 c -1.976801,0 -5.732036,-0.18071 -8.344979,-0.40159 -4.718522,-0.39885 -4.749403,-0.39188 -4.542284,1.02599 0.128394,0.87884 0.806604,1.62576 1.76448,1.94316 0.85577,0.28356 3.184664,2.03136 5.175331,3.88399 1.990684,1.85264 3.983334,3.36843 4.428121,3.36843 0.444786,0 0.808709,0.41428 0.808709,0.92062 0,1.57345 2.997169,1.15852 3.32501,-0.46031 z m 58.51013,0.66389 c 2.72417,-0.0417 3.22217,-0.22737 3.22217,-1.20057 0,-0.63312 -0.0691,-1.32965 -0.15344,-1.54785 -0.17984,-0.46495 -8.19408,-0.34788 -11.968114,0.17483 -2.28416,0.31636 -2.60843,0.5538 -2.60843,1.90998 0,1.54409 0.0122,1.54746 4.142804,1.13089 2.27855,-0.22978 5.59279,-0.44007 7.36499,-0.46728 z m -45.70307,-1.85133 c 3.448358,-0.34567 6.614963,-0.64571 7.036924,-0.66673 0.421944,-0.0211 0.767182,-0.66526 0.767182,-1.43166 0,-1.38808 -0.02853,-1.39233 -7.455998,-1.10516 -4.100785,0.15849 -7.671918,0.4217 -7.935822,0.5848 -0.375545,0.2321 -0.372657,2.14495 0.0052,3.84241 0.02331,0.10439 0.328014,0.0139 0.677236,-0.20275 0.349222,-0.21583 3.456309,-0.67525 6.904667,-1.02091 z m 44.01526,-3.56389 c 3.70967,-0.4261 5.43917,-0.90285 5.98634,-1.65018 0.42323,-0.578 0.56131,-1.20386 0.30687,-1.39078 -0.25442,-0.18694 -4.09829,-0.2558 -8.54193,-0.1531 -6.664944,0.15414 -8.144154,0.35578 -8.449644,1.15184 -0.58024,1.51215 0.82089,2.65112 3.25507,2.64602 1.224534,-0.002 4.574014,-0.27431 7.443294,-0.60387 z m -36.211154,-3.59575 v -1.74931 l -6.804841,-0.35899 c -3.742656,-0.19744 -7.194998,-0.20925 -7.671849,-0.0263 -1.470096,0.56412 -0.987052,2.04262 0.667354,2.04262 0.843905,0 1.534363,0.25592 1.534363,0.56874 0,0.85263 1.621212,1.12271 7.211544,1.20131 l 5.063429,0.0711 z m 59.629754,-7.45017 c 1.32319,-0.009 1.64104,-4.83565 2.06163,-31.30792 0.17431,-10.970757 0.48193,-21.120617 0.68362,-22.555257 0.36392,-2.58874 0.35227,-2.60842 -1.54424,-2.60842 -1.05101,0 -1.91092,-0.31133 -1.91092,-0.69183 0,-1.27808 -6.22961,-0.24896 -7.42435,1.22647 -1.25764,1.5531 -1.84185,1.58837 -5.45797,0.32941 -1.78136,-0.62019 -3.65868,-0.82388 -5.31035,-0.57621 -2.9161,0.43731 -16.947974,-0.64376 -21.087234,-1.62462 -2.99177,-0.70895 -23.386789,-1.31338 -38.666134,-1.14591 -7.575118,0.083 -9.655505,0.28892 -10.212158,1.01073 -0.384487,0.49856 -1.179574,3.58843 -1.766864,6.86638 -0.587273,3.27797 -1.454438,7.45389 -1.927026,9.279847 -0.472589,1.82597 -0.966819,7.27053 -1.09831,12.09902 -0.131526,4.82847 -0.382712,9.01148 -0.558271,9.29555 -0.175577,0.28406 -0.509106,4.41486 -0.741172,9.17956 l -0.421962,8.66305 2.685701,0.33042 c 6.414943,0.78922 15.20149,0.98088 49.023706,1.06933 29.977934,0.0785 36.106894,0.2382 37.131784,0.96826 0.77969,0.5554 2.01114,0.75117 3.3756,0.53663 1.18147,-0.18576 2.60567,-0.34079 3.16492,-0.34449 z m 14.4797,-20.56733 c 1.21555,-2.02537 3.10562,-4.69376 4.20018,-5.92976 1.09455,-1.23597 2.33418,-2.89309 2.75473,-3.68247 0.42057,-0.78938 1.13956,-1.71191 1.59778,-2.05008 0.45821,-0.33816 0.82623,-1.44291 0.81779,-2.45499 -0.009,-1.01209 -0.22133,-11.368597 -0.47308,-23.014477 l -0.45771,-21.1743 -1.38093,-0.19613 c -0.833,-0.1183 -1.38151,0.12527 -1.3824,0.61376 -0.002,0.87713 -3.49582,6.21452 -6.79812,10.38402 -1.13177,1.42897 -2.11861,3.0128 -2.193,3.51962 -0.0745,0.50683 -1.08462,1.77278 -2.24495,2.81323 -2.8392,2.5458 -3.44934,6.30706 -2.64653,16.31478 0.20309,2.53172 0.66273,10.126837 1.02143,16.878077 0.35869,6.75122 0.79045,12.93397 0.95945,13.73943 l 0.30729,1.46446 1.85399,-1.77134 c 1.01971,-0.97424 2.84854,-3.42847 4.06408,-5.45383 z M 129.93871,79.901263 c 2.56597,0 2.79929,-0.15431 4.85979,-3.21399 2.48958,-3.69681 2.68415,-4.47233 0.87978,-3.50664 -0.70657,0.37814 -1.98486,0.51178 -2.84065,0.29701 -2.97744,-0.7473 -4.76772,0.14492 -6.19803,3.08894 -1.58834,3.26927 -1.68165,4.21168 -0.36707,3.70722 0.53395,-0.20489 2.18375,-0.37254 3.66618,-0.37254 z m -12.16406,-1.2275 c 0.41683,-2.39013 -0.66123,-2.68481 -10.42958,-2.85098 -5.19929,-0.0884 -13.850174,-0.39471 -19.224184,-0.68057 -13.546998,-0.72065 -24.978048,-0.56069 -25.282854,0.35378 -0.362375,1.0871 -1.131035,0.88205 -2.92457,-0.78013 -1.347077,-1.24843 -1.555379,-1.84599 -1.2302,-3.52905 0.363453,-1.88106 0.325404,-1.94346 -0.531149,-0.8716 -0.507435,0.635 -2.315653,2.61415 -4.018286,4.39811 -1.702615,1.78397 -3.095657,3.35166 -3.095657,3.48376 0,0.13205 8.078466,0.28649 17.952136,0.34303 9.87367,0.0565 20.02354,0.3515 22.55524,0.65544 2.53172,0.30395 9.432834,0.51803 15.335824,0.47574 9.0189,-0.0645 10.75836,-0.22391 10.89328,-0.99753 z m 5.57415,-0.30688 c 0.88862,-1.95028 0.0478,-1.95785 -2.15567,-0.0193 l -1.72203,1.51497 1.58929,0.0195 c 1.11044,0.0139 1.79994,-0.44291 2.28841,-1.51498 z m -7.75861,-7.44293 c 0.10908,-0.5492 0.0604,-5.93291 -0.10839,-11.96378 -0.34651,-12.381532 -0.1444,-17.725047 0.67054,-17.725047 0.30973,0 0.55695,4.268067 0.55695,9.615397 0,5.28845 0.12143,9.49391 0.26996,9.34542 0.44957,-0.44955 1.50363,-20.621317 1.14852,-21.979272 -0.18179,-0.695187 -0.51687,-1.148815 -0.74462,-1.008058 -0.22774,0.140747 -6.61768,0.418417 -14.19988,0.617039 -7.582194,0.198614 -17.238114,0.555447 -21.457634,0.792968 -4.21952,0.237515 -8.500409,0.457593 -9.513105,0.489053 -4.373093,0.135875 -4.535378,0.211854 -4.872021,2.280892 -0.178499,1.097074 -0.469509,4.06608 -0.646686,6.597793 -0.177194,2.531715 -0.55493,7.226885 -0.839433,10.433725 -0.284503,3.20683 -0.508827,7.2565 -0.498511,8.99929 0.02244,3.79333 -0.06681,3.76337 9.618518,3.23029 5.868708,-0.323 27.688672,0.38157 29.153062,0.94135 0.33756,0.12909 3.01013,0.25642 5.93905,0.28308 4.45251,0.0405 5.35781,-0.11517 5.52373,-0.95014 z m -45.468328,-14.2377 c -0.378153,-0.70658 -0.498388,-2.42473 -0.280779,-4.01238 0.29054,-2.11967 0.144226,-3.01308 -0.618693,-3.775922 -1.329593,-1.329588 -1.262578,-2.13909 0.17709,-2.13909 0.646981,0 1.292536,-0.345233 1.434553,-0.767185 0.195253,-0.580152 0.469578,-0.596661 1.125206,-0.06773 0.651418,0.525539 2.240444,0.490685 6.390727,-0.14019 7.48667,-1.13802 8.07947,-1.10692 8.48536,0.445175 0.23339,0.892514 -0.0868,1.664319 -1.00248,2.416542 -1.06971,0.878752 -1.21016,1.32645 -0.68543,2.18494 0.48741,0.79742 0.43509,1.53046 -0.20008,2.80367 -1.13825,2.28168 -2.11253,2.70744 -7.21112,3.15129 -2.362926,0.20571 -4.894014,0.54559 -5.624626,0.75531 -0.954849,0.27409 -1.514338,0.0337 -1.989728,-0.85444 z m 8.739484,-5.10213 c 1.9129,-0.38417 3.47799,-0.91396 3.47799,-1.1773 0,-0.26336 0.16771,-0.915696 0.37254,-1.449645 0.31026,-0.80857 -0.12562,-0.958687 -2.60844,-0.898208 -5.229266,0.127385 -6.639914,0.649609 -6.857663,2.538733 -0.226603,1.96598 0.287948,2.05636 5.615573,0.98642 z m 13.14452,4.31846 c -0.59073,-0.33673 -1.07405,-1.32599 -1.07405,-2.19834 0,-1.74709 1.19577,-6.357847 1.84774,-7.124602 0.22732,-0.267349 4.4519,-0.610888 9.387994,-0.763423 l 8.97467,-0.277328 -0.23585,4.672703 c -0.12978,2.56999 -0.54475,4.98164 -0.92235,5.35922 -0.88392,0.88393 -16.503804,1.17218 -17.978154,0.33177 z m 16.110894,-6.381855 c 0,-1.52196 -0.0442,-1.53437 -5.47353,-1.53437 -6.281044,0 -7.415184,0.291658 -7.415184,1.906905 0,1.06618 0.53057,1.16184 6.444364,1.16184 h 6.44435 z m 26.14615,20.563565 c 0.97867,-0.33591 2.74606,-0.71029 3.92751,-0.83198 1.88017,-0.19364 2.54868,-0.78735 5.35924,-4.75955 3.69344,-5.22001 6.31889,-7.65198 7.02603,-6.50826 0.3474,0.56185 0.67849,0.51851 1.36117,-0.17817 2.00095,-2.04201 1.45281,-2.50317 -3.13175,-2.63486 -4.01251,-0.11524 -4.45161,-0.01 -4.73999,1.14135 -0.17482,0.6976 -1.01576,1.64187 -1.86877,2.09839 -0.85302,0.45653 -1.55092,1.13627 -1.55092,1.51054 0,0.9171 -2.25322,2.79456 -3.35384,2.79456 -0.48664,0 -1.32761,0.93314 -1.86881,2.07362 -0.54121,1.1405 -1.65892,2.70765 -2.48379,3.4826 -2.43714,2.28957 -1.96211,2.93963 1.32392,1.81176 z m -0.6756,-1.23049 c 0.20864,-0.33757 0.63921,-0.61376 0.95685,-0.61376 0.31765,0 0.57753,0.27619 0.57753,0.61376 0,0.33756 -0.43059,0.61375 -0.95685,0.61375 -0.52626,0 -0.78614,-0.27619 -0.57753,-0.61375 z m -68.432929,-1.6879 c 0,-1.41848 -1.061479,-0.2733 -1.40308,1.51371 -0.301118,1.57518 -0.265835,1.6082 0.540473,0.50552 0.474432,-0.64884 0.862607,-1.55748 0.862607,-2.01923 z m 60.596629,-0.15327 c 0.57805,-0.67513 1.34351,-1.22751 1.70099,-1.22751 0.35751,0 2.26489,-1.63193 4.23866,-3.62649 3.47411,-3.51076 3.57343,-3.70174 3.11184,-5.98404 -0.6145,-3.03828 -0.42133,-14.807655 0.3197,-19.479334 0.31577,-1.990632 0.41091,-3.883357 0.21148,-4.206067 -0.19944,-0.322708 -2.34872,1.386095 -4.77617,3.79734 -3.15469,3.133633 -4.70628,4.271743 -5.43988,3.990236 -1.97922,-0.759502 -2.4639,2.3765 -2.32479,15.042265 0.072,6.56465 0.26812,12.15743 0.43558,12.4284 0.50812,0.82216 1.41587,0.55772 2.52259,-0.7348 z m -5.60944,-35.718126 c 2.16858,-2.208598 2.50517,-2.867309 2.05525,-4.022083 -0.6427,-1.649559 -2.30851,-1.740981 -9.22876,-0.506513 -3.34102,0.595993 -6.12322,0.683802 -9.81997,0.309931 -7.573474,-0.765941 -14.483844,-0.273702 -17.409474,1.240102 -1.33723,0.691921 -2.75339,1.258037 -3.14703,1.258037 -0.89813,0 -1.81951,1.130462 -2.36058,2.896284 l -0.41731,1.36192 12.15684,-0.197584 c 6.68627,-0.108666 13.675884,0.01461 15.532484,0.274001 1.85659,0.25937 4.87629,0.371564 6.71043,0.249316 2.98908,-0.199216 3.60368,-0.496085 5.92812,-2.863411 z"
     id="path4583"
     inkscape:connector-curvature="0" />
</svg>
